<svg width="549" height="402" viewBox="0 0 549 402" fill="none" xmlns="http://www.w3.org/2000/svg">
<g clip-path="url(#clip0_59_256)">
<path d="M529.239 328.944H19.7606C8.86479 328.944 0 321.281 0 311.86V258.848H549V311.86C549 321.281 540.136 328.944 529.239 328.944Z" fill="#E4D0D0"/>
<path d="M339.738 320H209.815V400.23H339.738V320Z" fill="#E4D0D0"/>
<path d="M347.553 390.096H202V400.23H347.553V390.096Z" fill="#E4D0D0"/>
<path d="M548.512 281.228H0V11.7236C0 5.25934 6.08348 0 13.5607 0H534.951C542.428 0 548.512 5.25934 548.512 11.7236V281.228Z" fill="#E4D0D0"/>
<path d="M535.324 12.2456H12.6995V266.449H535.324V12.2456Z" fill="#F7F4F6"/>
<path d="M113.912 163.757C117.912 160.9 122.859 160.368 124.963 162.569C127.066 164.77 125.527 168.87 121.526 171.728C119.945 172.889 118.066 173.705 116.046 174.109L98.9204 186.032L92.6204 178.965L110.172 167.962C111.012 166.322 112.295 164.881 113.912 163.757Z" fill="#FFB6B6"/>
<path d="M14.9297 190.657C14.921 190.13 14.9267 185.531 18.8651 182.624C23.3892 179.285 29.7729 180.636 32.012 181.11C37.1842 182.205 37.6084 184.123 42.4657 186.094C51.5531 189.782 40.1669 187.894 45.5742 186.712C47.4459 186.303 74.373 184.688 81.0757 181.122C94.1116 174.185 102.994 169.979 102.994 169.979L108.8 180.019C108.8 180.019 100.404 190.112 88.5872 197.589C76.4657 205.259 70.405 209.094 61.1944 210.575C60.4012 210.703 40.8937 213.582 25.1821 203.434C21.5983 201.12 15.032 196.879 14.9297 190.657Z" fill="#E8B5D1"/>
<path d="M32.9416 165.124C44.1129 165.124 53.169 157.294 53.169 147.637C53.169 137.979 44.1129 130.149 32.9416 130.149C21.7703 130.149 12.7142 137.979 12.7142 147.637C12.7142 157.294 21.7703 165.124 32.9416 165.124Z" fill="#FFB6B6"/>
<path d="M191.355 265.122L170.523 246.687L159.77 256.385L175.29 274.06L190.685 275.582L191.355 265.122Z" fill="#FFB6B6"/>
<path d="M72.4067 230.553C73.6251 230.64 77.4971 231.311 81.1979 229.551C83.7236 228.349 85.019 226.563 85.4565 225.995C90.8842 218.947 111.717 207.958 130.414 207.281C134.648 207.128 137.435 207.552 139.968 208.694C143.56 210.313 144.994 212.631 149.552 218.063C152.045 221.034 154.804 223.833 157.327 226.785C172.1 244.068 177.7 245.425 177.128 250.966C176.493 257.114 168.824 262.946 163.726 262.273C161.639 261.997 160.83 260.742 158.041 258.202C149.864 250.754 146.481 252.13 140.659 246.424C133.861 239.764 134.751 234.241 131.205 234.027C127.916 233.829 126.519 238.541 119.498 244.8C116.285 247.664 113.997 248.978 107.027 253.158C79.8854 269.437 79.4522 270.581 73.9746 271.879C71.5781 272.447 54.5687 276.479 48.5094 270.063C39.0274 260.023 61.4279 229.764 72.4067 230.553Z" fill="#2F2E41"/>
<path d="M184.986 269.288C186.518 268.693 188.31 267.998 188.886 266.398C189.276 265.316 189.051 263.982 188.245 263.06C187.315 261.996 185.939 261.856 185.994 261.668C186.079 261.381 189.334 261.493 192.908 262.585C193.582 262.791 196.637 263.757 200.524 266.379C203.637 268.481 203.218 268.902 205.171 270.114C211.164 273.833 216.785 270.902 220.028 274.39C221.28 275.736 221.814 277.648 221.287 279.193C220.229 282.297 215.085 283.365 212.274 283.916C205.503 285.244 200.379 284.16 195.028 283.381C176.829 280.729 166.604 283.144 165.236 279.499C164.977 278.809 165.397 278.868 166.801 273.806C168.185 268.809 168.14 267.437 169.32 267.037C171.095 266.435 172.287 269.174 176.76 270.112C180.723 270.943 183.993 269.673 184.986 269.288Z" fill="#2F2E41"/>
<path d="M154.32 325.429L149.057 300.062L133.86 302.866L135.222 325.026L146.971 333.759L154.32 325.429Z" fill="#FFB6B6"/>
<path d="M78.3498 239.079C79.3012 239.743 82.0694 242.178 86.2751 242.518C89.1453 242.75 91.3774 241.901 92.1084 241.643C101.177 238.447 125.553 239.467 141.463 247.984C145.066 249.912 147.097 251.616 148.452 253.791C150.372 256.874 150.053 259.489 150.296 266.196C150.429 269.865 150.894 273.52 151.065 277.188C152.062 298.66 155.815 302.502 151.742 306.809C147.224 311.587 137.089 312.69 133.309 309.659C131.761 308.417 131.907 306.986 131.249 303.53C129.321 293.397 125.628 292.893 124.516 285.346C123.218 276.535 127.542 272.397 124.746 270.499C122.153 268.738 117.936 271.959 108.061 273.729C103.543 274.539 100.796 274.516 92.3139 274.591C59.2818 274.884 58.1803 275.621 52.8046 274.036C50.4526 273.342 33.7595 268.421 32.913 260.171C31.5884 247.26 69.7777 233.097 78.3498 239.079Z" fill="#2F2E41"/>
<path d="M146.344 325.784C147.998 326.035 149.932 326.33 151.448 325.286C152.474 324.58 153.154 323.367 153.086 322.213C153.008 320.881 151.96 320.097 152.128 319.968C152.384 319.772 155.005 321.445 157.253 324.084C157.677 324.582 159.578 326.863 161.09 330.92C162.301 334.171 161.681 334.316 162.509 336.266C165.053 342.254 171.608 342.557 172.026 347.017C172.187 348.739 171.387 350.58 169.948 351.603C167.057 353.657 162.106 352.044 159.422 351.135C152.957 348.947 149.421 345.562 145.499 342.32C132.163 331.291 122.134 328.325 123.369 324.645C123.603 323.948 123.913 324.201 128.362 320.694C132.753 317.232 133.607 316.074 134.843 316.316C136.703 316.679 135.91 319.525 139.002 322.472C141.742 325.084 145.273 325.621 146.344 325.784Z" fill="#2F2E41"/>
<path d="M35.6993 150.98C36.4868 148.544 35.4977 147.657 36.5058 146.564C36.5058 146.564 36.9115 146.124 40.5383 144.937C39.4682 139.569 40.2694 138.662 40.2695 138.662C41.1929 137.616 43.0426 137.363 44.3019 137.5C46.9653 137.789 47.4367 139.871 49.1409 139.824C51.4951 139.759 54.3186 135.685 53.4422 132.154C52.7273 129.274 49.6448 127.135 48.8721 127.506C48.1059 127.874 45.3479 126.251 44.3019 126.576C43.5876 126.798 40.2254 126.503 39.463 126.809C38.6304 127.143 36.2461 129.222 36.0181 128.96C34.434 127.139 34.4677 126.504 33.5487 126.112C31.9201 125.416 30.1496 126.701 27.0967 127.971C20.8153 130.583 18.976 129.025 16.0747 131.225C14.609 132.336 13.8231 134.46 12.311 138.662C10.1964 144.538 9.13912 147.477 10.1604 150.282C11.2019 153.144 12.7356 152.521 14.9993 156.557C17.5192 161.051 16.6507 163.663 19.0318 164.692C20.8721 165.487 23.8295 164.981 24.9461 163.53C26.8579 161.045 21.9166 157.684 23.6019 153.769C24.6365 151.365 27.8279 149.542 29.7851 150.05C31.998 150.624 32.161 154.054 33.5487 154.001C34.7371 153.955 35.5621 151.404 35.6993 150.98Z" fill="#2F2E41"/>
<path d="M20.3759 167.713C24.5152 163.701 41.3752 167.854 42.9577 174.221C43.6086 176.84 41.2057 177.945 41.8824 180.961C42.8721 185.371 48.4761 185.07 52.6357 189.56C58.541 195.934 52.4573 202.164 59.0876 212.801C60.5044 215.074 61.6986 216.99 64.1954 218.844C69.925 223.098 75.2572 221.639 78.1746 225.584C80.3563 228.534 79.4599 232.169 79.25 233.021C78.3889 236.513 76.0553 237.364 74.411 240.226C71.6752 244.987 74.7728 248.482 74.9487 254.171C75.1687 261.288 70.7939 271.153 62.0448 274.39C52.2155 278.027 40.3606 272.004 34.624 266.024C31.2009 262.455 30.2072 259.163 28.7097 255.1C22.0168 236.941 18.2357 238.584 13.1175 224.189C7.2664 207.734 6.11615 188.456 13.1175 182.355C14.0455 181.547 16.5993 179.678 18.2253 176.313C20.4132 171.784 18.523 169.509 20.3759 167.713Z" fill="#E8B5D1"/>
<path d="M81.5373 261.115C84.7465 264.64 85.244 268.929 82.6487 270.694C80.0534 272.46 75.3489 271.033 72.1392 267.506C70.8346 266.113 69.9351 264.469 69.5158 262.713L56.1365 247.629L63.0498 243.07L76.7644 257.783C78.6404 258.548 80.277 259.691 81.5373 261.115Z" fill="#FFB6B6"/>
<path d="M32.5378 183.005C33.133 182.89 38.342 181.956 42.4373 184.696C47.1416 187.844 46.9137 193.522 46.8338 195.514C46.6492 200.115 44.5636 200.865 43.3229 205.378C41.0017 213.822 45.4223 221.669 47.8645 226.004C48.7099 227.504 51.4258 232.096 56.832 237.041C67.3465 246.658 76.7281 251.719 76.7281 251.719L66.6496 259.464C66.6496 259.464 50.5957 255.234 39.7177 246.758C28.5593 238.064 11.3997 207.304 7.84245 199.811C7.5361 199.166 11.8755 209.657 20.1609 194.289C22.0508 190.783 25.5134 184.361 32.5378 183.005Z" fill="#E8B5D1"/>
<path d="M290.486 175.789L278.453 170.861C283.388 176.816 287.641 186.116 289.918 193.517C293.773 186.623 299.988 178.188 306.139 173.15L293.421 175.979C301.258 142.774 330.734 118.936 364.488 118.936L364.966 117.737C329.709 117.737 298.488 141.244 290.486 175.789Z" fill="#8D493A" fill-opacity="0.78"/>
<path d="M345.872 226.383H269.839C266.614 226.383 263.991 224.115 263.991 221.327C263.991 218.539 266.614 216.27 269.839 216.27H345.872C349.097 216.27 351.72 218.539 351.72 221.327C351.72 224.115 349.097 226.383 345.872 226.383Z" fill="#E4D0D0"/>
<path d="M447.042 226.383H371.01C367.785 226.383 365.161 224.115 365.161 221.327C365.161 218.539 367.785 216.27 371.01 216.27H447.042C450.267 216.27 452.891 218.539 452.891 221.327C452.891 224.115 450.267 226.383 447.042 226.383Z" fill="#E6E6E6"/>
<path d="M402.032 88.8304H328.125C326.262 88.8304 324.746 87.5197 324.746 85.9088C324.746 84.298 326.262 82.9879 328.125 82.9879H402.032C403.895 82.9879 405.411 84.298 405.411 85.9088C405.411 87.5197 403.895 88.8304 402.032 88.8304Z" fill="#E4D0D0"/>
<path d="M441.692 119.998H288.466C286.603 119.998 285.086 118.687 285.086 117.077C285.086 115.466 286.603 114.156 288.466 114.156H441.692C443.555 114.156 445.07 115.466 445.07 117.077C445.07 118.687 443.555 119.998 441.692 119.998Z" fill="#E4D0D0"/>
<path d="M33.2217 401.054C33.2217 401.579 33.7092 402 34.3162 402H514.684C515.291 402 515.778 401.579 515.778 401.054C515.778 400.529 515.291 400.108 514.684 400.108H34.3162C33.7092 400.108 33.2217 400.529 33.2217 401.054Z" fill="#E4D0D0"/>
<path d="M151.176 176.756C151.045 176.756 150.916 176.752 150.785 176.744C143.087 176.317 116.75 173.095 101.027 149.592C99.731 147.657 99.9863 145.197 101.661 143.471L130.78 113.477C131.971 112.251 133.811 111.544 135.674 111.563C136.961 111.59 140.01 111.871 140.602 113.903C144.1 125.906 158.871 140.02 176.635 141.891C178.435 142.081 179.881 143.469 180.501 145.606C180.985 147.269 180.538 148.984 179.274 150.31L155.947 174.799C154.762 176.042 153.023 176.756 151.176 176.756ZM135.562 112.77C134.139 112.77 132.755 113.321 131.85 114.253L102.732 144.247C101.432 145.585 101.233 147.49 102.235 148.987C117.612 171.972 143.352 175.122 150.875 175.54C152.411 175.629 153.886 175.063 154.869 174.031L178.196 149.543C179.175 148.515 179.522 147.188 179.147 145.9C178.781 144.639 177.884 143.239 176.466 143.089C158.115 141.157 142.859 126.588 139.248 114.197C138.955 113.194 137.195 112.802 135.645 112.77C135.617 112.77 135.589 112.77 135.562 112.77Z" fill="#8D493A"/>
<path d="M118.673 150.579L139.666 132.074C141.101 130.809 138.853 128.862 137.416 130.129L116.423 148.634C114.988 149.899 117.236 151.846 118.673 150.579Z" fill="#E4D0D0"/>
<path d="M131.344 155.793C137.138 151.303 142.172 146.105 146.295 140.401C147.383 138.895 144.632 137.513 143.548 139.013C139.562 144.527 134.694 149.508 129.094 153.848C127.565 155.032 129.822 156.972 131.344 155.793Z" fill="#E4D0D0"/>
<path d="M142.763 162.036C148.039 156.984 152.529 151.346 156.064 145.264C156.981 143.686 154.237 142.292 153.316 143.875C149.901 149.752 145.611 155.209 140.513 160.091C139.144 161.402 141.388 163.353 142.763 162.036Z" fill="#E4D0D0"/>
<path d="M133.769 128.72C145.459 128.72 154.935 120.701 154.935 110.808C154.935 100.915 145.459 92.8951 133.769 92.8951C122.08 92.8951 112.604 100.915 112.604 110.808C112.604 120.701 122.08 128.72 133.769 128.72Z" fill="#E8B5D1"/>
<path d="M144.782 119.305C141.527 112.386 138.272 105.467 135.017 98.5477C134.567 97.5921 133.159 97.5582 132.72 98.5477C129.504 105.802 127.402 113.371 126.391 121.089C126.219 122.403 128.602 122.393 128.773 121.089C129.169 118.069 129.756 115.071 130.509 112.106C133.192 112.227 135.896 111.967 138.484 111.348C139.818 114.182 141.152 117.017 142.486 119.852C143.055 121.064 145.36 120.534 144.782 119.305ZM131.049 110.07C131.852 107.231 132.813 104.426 133.929 101.666L137.58 109.425C135.442 109.91 133.255 110.126 131.049 110.07Z" fill="white"/>
</g>
<defs>
<clipPath id="clip0_59_256">
<rect width="549" height="402" fill="white"/>
</clipPath>
</defs>
</svg>
